<svg width="136" height="41" viewBox="0 0 136 41" fill="none" xmlns="http://www.w3.org/2000/svg">
<rect x="0.642578" y="0.414062" width="135" height="40" rx="7" fill="black"/>
<path d="M82.1692 19.6144V21.9054H80.7332V23.4079H82.1692V28.5129C82.1692 30.256 82.9578 30.9533 84.9417 30.9533C85.2903 30.9533 85.6224 30.9118 85.9129 30.862V29.3762C85.6639 29.4011 85.5062 29.4177 85.2322 29.4177C84.344 29.4177 83.9539 29.0026 83.9539 28.0563V23.4079H85.9129V21.9054H83.9539V19.6144H82.1692Z" fill="white"/>
<path d="M90.9667 31.0778C93.6064 31.0778 95.225 29.3097 95.225 26.3796C95.225 23.466 93.5981 21.6896 90.9667 21.6896C88.3271 21.6896 86.7001 23.466 86.7001 26.3796C86.7001 29.3097 88.3188 31.0778 90.9667 31.0778ZM90.9667 29.4924C89.4145 29.4924 88.5429 28.3552 88.5429 26.3796C88.5429 24.4206 89.4145 23.2751 90.9667 23.2751C92.5107 23.2751 93.3906 24.4206 93.3906 26.3796C93.3906 28.3469 92.5107 29.4924 90.9667 29.4924Z" fill="white"/>
<path d="M96.6099 30.9035H98.3946V25.5661C98.3946 24.2961 99.3492 23.4411 100.702 23.4411C101.018 23.4411 101.549 23.4992 101.698 23.549V21.7892C101.507 21.7394 101.167 21.7145 100.901 21.7145C99.7227 21.7145 98.7183 22.362 98.461 23.2502H98.3282V21.8639H96.6099V30.9035Z" fill="white"/>
<path d="M106.13 23.2087C107.449 23.2087 108.313 24.1301 108.354 25.5495H103.789C103.888 24.1384 104.81 23.2087 106.13 23.2087ZM108.346 28.4631C108.014 29.1686 107.275 29.5588 106.196 29.5588C104.768 29.5588 103.847 28.5544 103.789 26.9689V26.8693H110.172V26.2468C110.172 23.4079 108.653 21.6896 106.138 21.6896C103.59 21.6896 101.971 23.5241 101.971 26.4128C101.971 29.3014 103.556 31.0778 106.146 31.0778C108.213 31.0778 109.657 30.0817 110.064 28.4631H108.346Z" fill="white"/>
<path d="M70.4657 27.5653C70.6033 29.785 72.4531 31.2046 75.2062 31.2046C78.1486 31.2046 79.9897 29.7162 79.9897 27.3416C79.9897 25.4747 78.9401 24.4423 76.3935 23.8486L75.0255 23.5131C73.4081 23.1345 72.7542 22.6269 72.7542 21.7408C72.7542 20.6223 73.7694 19.891 75.2922 19.891C76.7376 19.891 77.7356 20.6051 77.9163 21.7494H79.7919C79.68 19.6587 77.8389 18.1875 75.318 18.1875C72.6079 18.1875 70.8012 19.6587 70.8012 21.8698C70.8012 23.6938 71.825 24.7778 74.0705 25.3026L75.6708 25.6898C77.3141 26.0769 78.0367 26.6448 78.0367 27.5911C78.0367 28.6924 76.9011 29.4925 75.3525 29.4925C73.692 29.4925 72.5391 28.744 72.3756 27.5653H70.4657Z" fill="white"/>
<path d="M51.9783 21.7145C50.7498 21.7145 49.6873 22.3288 49.1395 23.3581H49.0066V21.8639H47.2884V33.9084H49.073V29.5339H49.2142C49.6873 30.4885 50.7083 31.0529 51.9949 31.0529C54.2776 31.0529 55.7303 29.2516 55.7303 26.3796C55.7303 23.5075 54.2776 21.7145 51.9783 21.7145ZM51.472 29.4509C49.9778 29.4509 49.0398 28.2721 49.0398 26.3879C49.0398 24.4953 49.9778 23.3166 51.4803 23.3166C52.991 23.3166 53.8958 24.4704 53.8958 26.3796C53.8958 28.2971 52.991 29.4509 51.472 29.4509Z" fill="white"/>
<path d="M61.9751 21.7145C60.7466 21.7145 59.6841 22.3288 59.1362 23.3581H59.0034V21.8639H57.2852V33.9084H59.0698V29.5339H59.211C59.6841 30.4885 60.7051 31.0529 61.9917 31.0529C64.2744 31.0529 65.7271 29.2516 65.7271 26.3796C65.7271 23.5075 64.2744 21.7145 61.9751 21.7145ZM61.4688 29.4509C59.9746 29.4509 59.0366 28.2721 59.0366 26.3879C59.0366 24.4953 59.9746 23.3166 61.4771 23.3166C62.9878 23.3166 63.8926 24.4704 63.8926 26.3796C63.8926 28.2971 62.9878 29.4509 61.4688 29.4509Z" fill="white"/>
<path d="M44.0864 30.9035H46.134L41.6516 18.4886H39.5781L35.0957 30.9035H37.0745L38.2188 27.6083H42.9507L44.0864 30.9035ZM40.5159 20.7427H40.6622L42.4603 25.9909H38.7092L40.5159 20.7427Z" fill="white"/>
<path d="M36.293 9.1228V15.1118H38.4553C40.24 15.1118 41.2734 14.012 41.2734 12.0986C41.2734 10.2144 40.2317 9.1228 38.4553 9.1228H36.293ZM37.2227 9.96948H38.3516C39.5925 9.96948 40.3271 10.7581 40.3271 12.1111C40.3271 13.4849 39.605 14.2651 38.3516 14.2651H37.2227V9.96948Z" fill="white"/>
<path d="M44.4385 15.199C45.7583 15.199 46.5677 14.3149 46.5677 12.8499C46.5677 11.3931 45.7542 10.5049 44.4385 10.5049C43.1187 10.5049 42.3052 11.3931 42.3052 12.8499C42.3052 14.3149 43.1146 15.199 44.4385 15.199ZM44.4385 14.4062C43.6624 14.4062 43.2266 13.8376 43.2266 12.8499C43.2266 11.8704 43.6624 11.2976 44.4385 11.2976C45.2105 11.2976 45.6504 11.8704 45.6504 12.8499C45.6504 13.8335 45.2105 14.4062 44.4385 14.4062Z" fill="white"/>
<path d="M53.4598 10.592H52.5675L51.7623 14.041H51.6917L50.7621 10.592H49.9071L48.9774 14.041H48.911L48.1017 10.592H47.1969L48.442 15.1118H49.3592L50.2889 11.7832H50.3595L51.2933 15.1118H52.2188L53.4598 10.592Z" fill="white"/>
<path d="M54.4874 15.1118H55.3798V12.468C55.3798 11.7625 55.799 11.3225 56.4589 11.3225C57.1188 11.3225 57.4342 11.6836 57.4342 12.4099V15.1118H58.3266V12.1858C58.3266 11.1108 57.7704 10.5049 56.7619 10.5049C56.0812 10.5049 55.633 10.8079 55.413 11.3101H55.3466V10.592H54.4874V15.1118Z" fill="white"/>
<path d="M59.7319 15.1118H60.6242V8.82812H59.7319V15.1118Z" fill="white"/>
<path d="M63.9802 15.199C65.3 15.199 66.1094 14.3149 66.1094 12.8499C66.1094 11.3931 65.2959 10.5049 63.9802 10.5049C62.6604 10.5049 61.8469 11.3931 61.8469 12.8499C61.8469 14.3149 62.6562 15.199 63.9802 15.199ZM63.9802 14.4062C63.2041 14.4062 62.7683 13.8376 62.7683 12.8499C62.7683 11.8704 63.2041 11.2976 63.9802 11.2976C64.7522 11.2976 65.1921 11.8704 65.1921 12.8499C65.1921 13.8335 64.7522 14.4062 63.9802 14.4062Z" fill="white"/>
<path d="M68.7681 14.4353C68.2825 14.4353 67.9297 14.1987 67.9297 13.792C67.9297 13.3936 68.212 13.1819 68.8345 13.1404L69.9385 13.0698V13.4475C69.9385 14.0078 69.4405 14.4353 68.7681 14.4353ZM68.5398 15.1865C69.1333 15.1865 69.6272 14.9292 69.897 14.4768H69.9676V15.1118H70.8267V12.0239C70.8267 11.0693 70.1875 10.5049 69.0545 10.5049C68.0293 10.5049 67.2989 11.0029 67.2076 11.7791H68.0708C68.1705 11.4595 68.5149 11.2769 69.013 11.2769C69.6231 11.2769 69.9385 11.5466 69.9385 12.0239V12.4141L68.7142 12.4846C67.6392 12.551 67.0333 13.02 67.0333 13.8335C67.0333 14.6594 67.6683 15.1865 68.5398 15.1865Z" fill="white"/>
<path d="M73.8548 15.1865C74.4774 15.1865 75.0045 14.8918 75.2743 14.3979H75.3448V15.1118H76.1998V8.82812H75.3075V11.3101H75.2411C74.9962 10.812 74.4732 10.5173 73.8548 10.5173C72.7135 10.5173 71.9789 11.4221 71.9789 12.8499C71.9789 14.2817 72.7052 15.1865 73.8548 15.1865ZM74.108 11.3184C74.8551 11.3184 75.3241 11.9119 75.3241 12.854C75.3241 13.8003 74.8592 14.3855 74.108 14.3855C73.3526 14.3855 72.9002 13.8086 72.9002 12.8499C72.9002 11.8994 73.3568 11.3184 74.108 11.3184Z" fill="white"/>
<path d="M81.9863 15.199C83.3061 15.199 84.1154 14.3149 84.1154 12.8499C84.1154 11.3931 83.302 10.5049 81.9863 10.5049C80.6665 10.5049 79.853 11.3931 79.853 12.8499C79.853 14.3149 80.6623 15.199 81.9863 15.199ZM81.9863 14.4062C81.2102 14.4062 80.7744 13.8376 80.7744 12.8499C80.7744 11.8704 81.2102 11.2976 81.9863 11.2976C82.7583 11.2976 83.1982 11.8704 83.1982 12.8499C83.1982 13.8335 82.7583 14.4062 81.9863 14.4062Z" fill="white"/>
<path d="M85.2966 15.1118H86.189V12.468C86.189 11.7625 86.6082 11.3225 87.2681 11.3225C87.928 11.3225 88.2434 11.6836 88.2434 12.4099V15.1118H89.1357V12.1858C89.1357 11.1108 88.5796 10.5049 87.571 10.5049C86.8904 10.5049 86.4421 10.8079 86.2222 11.3101H86.1558V10.592H85.2966V15.1118Z" fill="white"/>
<path d="M93.2455 9.46729V10.6128H92.5274V11.364H93.2455V13.9165C93.2455 14.7881 93.6397 15.1367 94.6317 15.1367C94.806 15.1367 94.972 15.116 95.1173 15.0911V14.3481C94.9928 14.3606 94.9139 14.3689 94.777 14.3689C94.3329 14.3689 94.1378 14.1614 94.1378 13.6882V11.364H95.1173V10.6128H94.1378V9.46729H93.2455Z" fill="white"/>
<path d="M96.3151 15.1118H97.2074V12.4722C97.2074 11.7874 97.6142 11.3267 98.3446 11.3267C98.9755 11.3267 99.3117 11.6919 99.3117 12.4141V15.1118H100.204V12.1941C100.204 11.1191 99.6105 10.509 98.6476 10.509C97.9669 10.509 97.4896 10.812 97.2697 11.3184H97.1991V8.82812H96.3151V15.1118Z" fill="white"/>
<path d="M103.423 11.2644C104.083 11.2644 104.515 11.7251 104.535 12.4348H102.253C102.302 11.7292 102.763 11.2644 103.423 11.2644ZM104.531 13.8916C104.365 14.2444 103.996 14.4395 103.456 14.4395C102.742 14.4395 102.282 13.9373 102.253 13.1445V13.0947H105.444V12.7834C105.444 11.364 104.685 10.5049 103.427 10.5049C102.153 10.5049 101.344 11.4221 101.344 12.8665C101.344 14.3108 102.136 15.199 103.431 15.199C104.465 15.199 105.187 14.7009 105.39 13.8916H104.531Z" fill="white"/>
<path d="M25.4106 20.7132C25.4323 19.0322 26.335 17.4416 27.7672 16.5611C26.8637 15.2708 25.3504 14.4527 23.776 14.4034C22.0968 14.2272 20.4688 15.4083 19.6131 15.4083C18.7408 15.4083 17.4233 14.4209 16.0046 14.4501C14.1553 14.5099 12.4314 15.5613 11.5317 17.178C9.59767 20.5264 11.0403 25.4475 12.8929 28.1541C13.8198 29.4794 14.9031 30.9599 16.3205 30.9074C17.7076 30.8498 18.2256 30.0229 19.8999 30.0229C21.5587 30.0229 22.0447 30.9074 23.4909 30.874C24.9793 30.8498 25.917 29.5428 26.8114 28.2049C27.4774 27.2605 27.9899 26.2168 28.3298 25.1123C26.5807 24.3725 25.4126 22.6123 25.4106 20.7132Z" fill="white"/>
<path d="M22.6789 12.6234C23.4905 11.6492 23.8903 10.397 23.7934 9.13281C22.5536 9.26303 21.4084 9.85559 20.5859 10.7924C19.7816 11.7078 19.363 12.9379 19.4422 14.1538C20.6824 14.1666 21.9017 13.5901 22.6789 12.6234Z" fill="white"/>
</svg>
