<svg width="33" height="33" viewBox="0 0 33 33" fill="none" xmlns="http://www.w3.org/2000/svg">
<path fill-rule="evenodd" clip-rule="evenodd" d="M9.71029 0.296875C10.2626 0.296875 10.7103 0.74459 10.7103 1.29687L10.7103 5.29687H22.0436L22.0436 1.29687C22.0436 0.74459 22.4913 0.296875 23.0436 0.296875C23.5959 0.296875 24.0436 0.74459 24.0436 1.29687L24.0436 5.29687L24.7819 5.29687C26.2923 5.29684 27.5266 5.29681 28.5011 5.42783C29.5197 5.56478 30.4028 5.86115 31.1077 6.56608C31.8127 7.271 32.109 8.15412 32.246 9.17272C32.377 10.1472 32.377 11.3815 32.3769 12.892V24.7018C32.377 26.2122 32.377 27.4465 32.246 28.421C32.109 29.4396 31.8127 30.3227 31.1077 31.0277C30.4028 31.7326 29.5197 32.029 28.5011 32.1659C27.5266 32.2969 26.2923 32.2969 24.7819 32.2969H7.97204C6.46159 32.2969 5.22729 32.2969 4.2528 32.1659C3.2342 32.029 2.35108 31.7326 1.64616 31.0277C0.941235 30.3227 0.644859 29.4396 0.507911 28.421C0.376895 27.4465 0.376922 26.2122 0.376954 24.7018V12.892C0.376922 11.3815 0.376895 10.1472 0.507911 9.17272C0.644859 8.15412 0.941235 7.271 1.64616 6.56608C2.35108 5.86115 3.2342 5.56478 4.2528 5.42783C5.22728 5.29681 6.46159 5.29684 7.97203 5.29687L8.71029 5.29687V1.29687C8.71029 0.74459 9.158 0.296875 9.71029 0.296875ZM8.71029 7.29687H8.04362C6.444 7.29687 5.34489 7.299 4.5193 7.41C3.72247 7.51713 3.33176 7.7089 3.06037 7.98029C2.78899 8.25168 2.59721 8.64239 2.49008 9.43921C2.37908 10.2648 2.37695 11.3639 2.37695 12.9635V13.8848C2.55387 13.7265 2.7875 13.6302 3.04362 13.6302H29.7103C29.9664 13.6302 30.2 13.7265 30.3769 13.8848V12.9635C30.3769 11.3639 30.3748 10.2648 30.2638 9.43921C30.1567 8.64239 29.9649 8.25168 29.6935 7.98029C29.4221 7.7089 29.0314 7.51713 28.2346 7.41C27.409 7.299 26.3099 7.29687 24.7103 7.29687H24.0436V7.96354C24.0436 8.51583 23.5959 8.96354 23.0436 8.96354C22.4913 8.96354 22.0436 8.51583 22.0436 7.96354V7.29687H10.7103V7.96354C10.7103 8.51583 10.2626 8.96354 9.71029 8.96354C9.158 8.96354 8.71029 8.51583 8.71029 7.96354V7.29687ZM30.3769 15.3756C30.2 15.5339 29.9664 15.6302 29.7103 15.6302H3.04362C2.7875 15.6302 2.55387 15.5339 2.37695 15.3756V24.6302C2.37695 26.2298 2.37908 27.3289 2.49008 28.1545C2.59721 28.9514 2.78899 29.3421 3.06037 29.6135C3.33176 29.8848 3.72247 30.0766 4.5193 30.1837C5.34489 30.2947 6.444 30.2969 8.04362 30.2969H24.7103C26.3099 30.2969 27.409 30.2947 28.2346 30.1837C29.0314 30.0766 29.4221 29.8848 29.6935 29.6135C29.9649 29.3421 30.1567 28.9514 30.2638 28.1545C30.3748 27.3289 30.3769 26.2298 30.3769 24.6302V15.3756ZM10.377 22.9635C10.377 22.4113 10.8247 21.9635 11.377 21.9635H21.377C21.9292 21.9635 22.377 22.4113 22.377 22.9635C22.377 23.5158 21.9292 23.9635 21.377 23.9635H11.377C10.8247 23.9635 10.377 23.5158 10.377 22.9635Z" fill="#61B85A"/>
</svg>
