<svg width="33" height="36" viewBox="0 0 33 36" fill="none" xmlns="http://www.w3.org/2000/svg">
<path fill-rule="evenodd" clip-rule="evenodd" d="M16.377 2.34961C10.4859 2.34961 5.71029 7.12524 5.71029 13.0163C5.71029 16.8342 7.65557 19.9434 9.99524 22.3033C12.334 24.6623 14.9831 26.1842 16.174 26.8019C16.3067 26.8707 16.4472 26.8707 16.5799 26.8019C17.7708 26.1842 20.4199 24.6623 22.7587 22.3033C25.0983 19.9434 27.0436 16.8342 27.0436 13.0163C27.0436 7.12524 22.268 2.34961 16.377 2.34961ZM3.71029 13.0163C3.71029 6.02067 9.38135 0.349609 16.377 0.349609C23.3726 0.349609 29.0436 6.02067 29.0436 13.0163C29.0436 17.5589 26.723 21.1453 24.179 23.7114C21.634 26.2785 18.7814 27.913 17.5008 28.5772C16.7907 28.9456 15.9633 28.9456 15.2531 28.5772C13.9725 27.913 11.1199 26.2785 8.57494 23.7114C6.03087 21.1453 3.71029 17.5589 3.71029 13.0163ZM16.377 9.01627C14.1678 9.01627 12.377 10.8071 12.377 13.0163C12.377 15.2254 14.1678 17.0163 16.377 17.0163C18.5861 17.0163 20.377 15.2254 20.377 13.0163C20.377 10.8071 18.5861 9.01627 16.377 9.01627ZM10.377 13.0163C10.377 9.70257 13.0632 7.01628 16.377 7.01628C19.6907 7.01628 22.377 9.70257 22.377 13.0163C22.377 16.33 19.6907 19.0163 16.377 19.0163C13.0632 19.0163 10.377 16.33 10.377 13.0163ZM28.5013 26.6829C28.7775 26.2046 29.389 26.0408 29.8673 26.3169C31.2623 27.1223 32.377 28.244 32.377 29.6829C32.377 31.1219 31.2623 32.2436 29.8673 33.049C28.4175 33.886 26.4042 34.5451 24.0659 34.995C21.7157 35.4473 19.0652 35.6829 16.377 35.6829C13.6887 35.6829 11.0382 35.4473 8.68797 34.995C6.34975 34.5451 4.3364 33.886 2.88657 33.049C1.49164 32.2436 0.376954 31.1219 0.376953 29.6829C0.376953 28.244 1.49164 27.1223 2.88657 26.3169C3.36486 26.0408 3.97645 26.2046 4.2526 26.6829C4.52874 27.1612 4.36486 27.7728 3.88657 28.049C2.64846 28.7638 2.37695 29.3666 2.37695 29.6829C2.37695 29.9993 2.64846 30.6021 3.88657 31.3169C5.06979 32 6.84359 32.6034 9.06594 33.0311C11.2763 33.4565 13.7991 33.6829 16.377 33.6829C18.9548 33.6829 21.4776 33.4565 23.688 33.0311C25.9103 32.6034 27.6841 32 28.8673 31.3169C30.1055 30.6021 30.377 29.9993 30.377 29.6829C30.377 29.3666 30.1054 28.7638 28.8673 28.049C28.389 27.7728 28.2252 27.1612 28.5013 26.6829Z" fill="#61B85A"/>
</svg>
