<svg width="136" height="41" viewBox="0 0 136 41" fill="none" xmlns="http://www.w3.org/2000/svg">
<rect x="0.642578" y="0.414062" width="135" height="40" rx="5" fill="black"/>
<path d="M68.7776 22.1649C66.4256 22.1649 64.5086 23.9539 64.5086 26.4179C64.5086 28.8669 66.4256 30.6709 68.7776 30.6709C71.1306 30.6709 73.0476 28.8669 73.0476 26.4179C73.0466 23.9539 71.1296 22.1649 68.7776 22.1649ZM68.7776 28.9969C67.4886 28.9969 66.3776 27.9339 66.3776 26.4189C66.3776 24.8879 67.4896 23.8409 68.7776 23.8409C70.0666 23.8409 71.1776 24.8879 71.1776 26.4189C71.1776 27.9329 70.0666 28.9969 68.7776 28.9969ZM59.4636 22.1649C57.1116 22.1649 55.1946 23.9539 55.1946 26.4179C55.1946 28.8669 57.1116 30.6709 59.4636 30.6709C61.8166 30.6709 63.7336 28.8669 63.7336 26.4179C63.7336 23.9539 61.8166 22.1649 59.4636 22.1649ZM59.4636 28.9969C58.1746 28.9969 57.0636 27.9339 57.0636 26.4189C57.0636 24.8879 58.1756 23.8409 59.4636 23.8409C60.7526 23.8409 61.8636 24.8879 61.8636 26.4189C61.8646 27.9329 60.7526 28.9969 59.4636 28.9969ZM48.3856 23.4709V25.2749H52.7036C52.5746 26.2899 52.2366 27.0309 51.7206 27.5459C51.0926 28.1739 50.1096 28.8669 48.3856 28.8669C45.7276 28.8669 43.6496 26.7239 43.6496 24.0659C43.6496 21.4079 45.7276 19.2649 48.3856 19.2649C49.8196 19.2649 50.8666 19.8289 51.6396 20.5539L52.9126 19.2809C51.8326 18.2499 50.3996 17.4609 48.3856 17.4609C44.7446 17.4609 41.6836 20.4249 41.6836 24.0659C41.6836 27.7069 44.7446 30.6709 48.3856 30.6709C50.3506 30.6709 51.8336 30.0259 52.9926 28.8179C54.1846 27.6259 54.5556 25.9499 54.5556 24.5969C54.5556 24.1789 54.5236 23.7919 54.4586 23.4699H48.3856V23.4709ZM93.6936 24.8719C93.3396 23.9219 92.2596 22.1649 90.0526 22.1649C87.8616 22.1649 86.0406 23.8889 86.0406 26.4179C86.0406 28.8019 87.8456 30.6709 90.2616 30.6709C92.2106 30.6709 93.3386 29.4789 93.8066 28.7859L92.3566 27.8189C91.8736 28.5279 91.2126 28.9949 90.2616 28.9949C89.3116 28.9949 88.6346 28.5599 88.1996 27.7059L93.8866 25.3539L93.6936 24.8719ZM87.8936 26.2899C87.8456 24.6459 89.1666 23.8089 90.1176 23.8089C90.8586 23.8089 91.4866 24.1799 91.6966 24.7109L87.8936 26.2899ZM83.2706 30.4139H85.1386V17.9129H83.2706V30.4139ZM80.2086 23.1159H80.1446C79.7256 22.6159 78.9196 22.1649 77.9056 22.1649C75.7786 22.1649 73.8296 24.0339 73.8296 26.4349C73.8296 28.8189 75.7786 30.6719 77.9056 30.6719C78.9206 30.6719 79.7256 30.2209 80.1446 29.7059H80.2086V30.3179C80.2086 31.9449 79.3386 32.8149 77.9376 32.8149C76.7936 32.8149 76.0846 31.9939 75.7946 31.3009L74.1676 31.9779C74.6346 33.1049 75.8746 34.4909 77.9376 34.4909C80.1286 34.4909 81.9816 33.2019 81.9816 30.0599V22.4239H80.2096V23.1159H80.2086ZM78.0666 28.9969C76.7776 28.9969 75.6986 27.9169 75.6986 26.4349C75.6986 24.9359 76.7776 23.8409 78.0666 23.8409C79.3386 23.8409 80.3376 24.9359 80.3376 26.4349C80.3376 27.9169 79.3386 28.9969 78.0666 28.9969ZM102.448 17.9129H97.9766V30.4139H99.8416V25.6779H102.447C104.515 25.6779 106.549 24.1809 106.549 21.7959C106.549 19.4109 104.516 17.9129 102.448 17.9129ZM102.496 23.9379H99.8416V19.6529H102.496C103.891 19.6529 104.683 20.8079 104.683 21.7959C104.683 22.7639 103.891 23.9379 102.496 23.9379ZM114.028 22.1429C112.677 22.1429 111.278 22.7379 110.699 24.0569L112.355 24.7479C112.709 24.0569 113.369 23.8309 114.06 23.8309C115.025 23.8309 116.006 24.4099 116.022 25.4389V25.5679C115.684 25.3749 114.96 25.0859 114.076 25.0859C112.291 25.0859 110.473 26.0669 110.473 27.8999C110.473 29.5729 111.937 30.6499 113.577 30.6499C114.831 30.6499 115.523 30.0869 115.957 29.4269H116.021V30.3919H117.823V25.5989C117.824 23.3809 116.166 22.1429 114.028 22.1429ZM113.802 28.9939C113.192 28.9939 112.339 28.6879 112.339 27.9319C112.339 26.9669 113.401 26.5969 114.318 26.5969C115.137 26.5969 115.524 26.7739 116.022 27.0149C115.877 28.1739 114.88 28.9939 113.802 28.9939ZM124.385 22.4159L122.246 27.8359H122.182L119.962 22.4159H117.952L121.281 29.9909L119.383 34.2049H121.329L126.46 22.4159H124.385ZM107.579 30.4139H109.444V17.9129H107.579V30.4139Z" fill="white"/>
<path d="M48.0601 10.6592C48.0601 11.4972 47.8121 12.1642 47.3151 12.6622C46.7511 13.2542 46.0151 13.5502 45.1111 13.5502C44.2451 13.5502 43.5081 13.2502 42.9031 12.6502C42.2971 12.0492 41.9941 11.3052 41.9941 10.4172C41.9941 9.5282 42.2971 8.7842 42.9031 8.1842C43.5081 7.5832 44.2451 7.2832 45.1111 7.2832C45.5411 7.2832 45.9521 7.3672 46.3421 7.5342C46.7331 7.7022 47.0461 7.9252 47.2801 8.2042L46.7531 8.7322C46.3561 8.2572 45.8091 8.0202 45.1101 8.0202C44.4781 8.0202 43.9321 8.2422 43.4711 8.6862C43.0101 9.1302 42.7801 9.7072 42.7801 10.4162C42.7801 11.1252 43.0101 11.7022 43.4711 12.1462C43.9321 12.5902 44.4781 12.8122 45.1101 12.8122C45.7801 12.8122 46.3391 12.5892 46.7861 12.1422C47.0761 11.8512 47.2441 11.4462 47.2891 10.9272H45.1101V10.2062H48.0171C48.0471 10.3632 48.0601 10.5142 48.0601 10.6592Z" fill="white"/>
<path d="M52.6702 8.15326H49.9382V10.0553H52.4022V10.7763H49.9382V12.6783H52.6702V13.4163H49.1672V7.41626H52.6702V8.15326Z" fill="white"/>
<path d="M55.9211 13.4163H55.1501V8.15326H53.4741V7.41626H57.5971V8.15326H55.9211V13.4163Z" fill="white"/>
<path d="M60.5801 13.4163V7.41626H61.3511V13.4163H60.5801Z" fill="white"/>
<path d="M64.7702 13.4163H63.9992V8.15326H62.3232V7.41626H66.4462V8.15326H64.7702V13.4163Z" fill="white"/>
<path d="M74.251 12.6413C73.661 13.2473 72.928 13.5503 72.051 13.5503C71.174 13.5503 70.441 13.2473 69.852 12.6413C69.262 12.0353 68.968 11.2933 68.968 10.4163C68.968 9.53925 69.262 8.79725 69.852 8.19125C70.441 7.58525 71.174 7.28125 72.051 7.28125C72.923 7.28125 73.655 7.58625 74.247 8.19525C74.839 8.80425 75.135 9.54425 75.135 10.4163C75.135 11.2933 74.84 12.0353 74.251 12.6413ZM70.421 12.1383C70.865 12.5883 71.408 12.8123 72.051 12.8123C72.694 12.8123 73.238 12.5873 73.681 12.1383C74.125 11.6883 74.348 11.1143 74.348 10.4163C74.348 9.71825 74.125 9.14425 73.681 8.69425C73.238 8.24425 72.694 8.02025 72.051 8.02025C71.408 8.02025 70.865 8.24525 70.421 8.69425C69.978 9.14425 69.755 9.71825 69.755 10.4163C69.755 11.1143 69.978 11.6883 70.421 12.1383Z" fill="white"/>
<path d="M76.217 13.4163V7.41626H77.155L80.071 12.0833H80.104L80.071 10.9273V7.41626H80.842V13.4163H80.037L76.986 8.52226H76.953L76.986 9.67826V13.4163H76.217Z" fill="white"/>
<path d="M48.0601 10.6592C48.0601 11.4972 47.8121 12.1642 47.3151 12.6622C46.7511 13.2542 46.0151 13.5502 45.1111 13.5502C44.2451 13.5502 43.5081 13.2502 42.9031 12.6502C42.2971 12.0492 41.9941 11.3052 41.9941 10.4172C41.9941 9.5282 42.2971 8.7842 42.9031 8.1842C43.5081 7.5832 44.2451 7.2832 45.1111 7.2832C45.5411 7.2832 45.9521 7.3672 46.3421 7.5342C46.7331 7.7022 47.0461 7.9252 47.2801 8.2042L46.7531 8.7322C46.3561 8.2572 45.8091 8.0202 45.1101 8.0202C44.4781 8.0202 43.9321 8.2422 43.4711 8.6862C43.0101 9.1302 42.7801 9.7072 42.7801 10.4162C42.7801 11.1252 43.0101 11.7022 43.4711 12.1462C43.9321 12.5902 44.4781 12.8122 45.1101 12.8122C45.7801 12.8122 46.3391 12.5892 46.7861 12.1422C47.0761 11.8512 47.2441 11.4462 47.2891 10.9272H45.1101V10.2062H48.0171C48.0471 10.3632 48.0601 10.5142 48.0601 10.6592Z" stroke="white" stroke-width="0.2" stroke-miterlimit="10"/>
<path d="M52.6702 8.15326H49.9382V10.0553H52.4022V10.7763H49.9382V12.6783H52.6702V13.4163H49.1672V7.41626H52.6702V8.15326Z" stroke="white" stroke-width="0.2" stroke-miterlimit="10"/>
<path d="M55.9211 13.4163H55.1501V8.15326H53.4741V7.41626H57.5971V8.15326H55.9211V13.4163Z" stroke="white" stroke-width="0.2" stroke-miterlimit="10"/>
<path d="M60.5801 13.4163V7.41626H61.3511V13.4163H60.5801Z" stroke="white" stroke-width="0.2" stroke-miterlimit="10"/>
<path d="M64.7702 13.4163H63.9992V8.15326H62.3232V7.41626H66.4462V8.15326H64.7702V13.4163Z" stroke="white" stroke-width="0.2" stroke-miterlimit="10"/>
<path d="M74.251 12.6413C73.661 13.2473 72.928 13.5503 72.051 13.5503C71.174 13.5503 70.441 13.2473 69.852 12.6413C69.262 12.0353 68.968 11.2933 68.968 10.4163C68.968 9.53925 69.262 8.79725 69.852 8.19125C70.441 7.58525 71.174 7.28125 72.051 7.28125C72.923 7.28125 73.655 7.58625 74.247 8.19525C74.839 8.80425 75.135 9.54425 75.135 10.4163C75.135 11.2933 74.84 12.0353 74.251 12.6413ZM70.421 12.1383C70.865 12.5883 71.408 12.8123 72.051 12.8123C72.694 12.8123 73.238 12.5873 73.681 12.1383C74.125 11.6883 74.348 11.1143 74.348 10.4163C74.348 9.71825 74.125 9.14425 73.681 8.69425C73.238 8.24425 72.694 8.02025 72.051 8.02025C71.408 8.02025 70.865 8.24525 70.421 8.69425C69.978 9.14425 69.755 9.71825 69.755 10.4163C69.755 11.1143 69.978 11.6883 70.421 12.1383Z" stroke="white" stroke-width="0.2" stroke-miterlimit="10"/>
<path d="M76.217 13.4163V7.41626H77.155L80.071 12.0833H80.104L80.071 10.9273V7.41626H80.842V13.4163H80.037L76.986 8.52226H76.953L76.986 9.67826V13.4163H76.217Z" stroke="white" stroke-width="0.2" stroke-miterlimit="10"/>
<g filter="url(#filter0_ii_8_30810)">
<path d="M11.0782 7.95191C10.7872 8.25991 10.6152 8.73791 10.6152 9.35691V31.4729C10.6152 32.0929 10.7872 32.5699 11.0782 32.8779L11.1522 32.9499L23.5412 20.5609V20.4149V20.2689L11.1522 7.87891L11.0782 7.95191Z" fill="url(#paint0_linear_8_30810)"/>
<path d="M27.67 24.6936L23.541 20.5626V20.4166V20.2706L27.671 16.1406L27.764 16.1936L32.657 18.9736C34.054 19.7676 34.054 21.0666 32.657 21.8616L27.764 24.6416L27.67 24.6936Z" fill="url(#paint1_linear_8_30810)"/>
<g filter="url(#filter1_i_8_30810)">
<path d="M27.7641 24.6381L23.5401 20.4141L11.0781 32.8771C11.5381 33.3651 12.2991 33.4251 13.1561 32.9391L27.7641 24.6381Z" fill="url(#paint2_linear_8_30810)"/>
</g>
<path d="M27.7641 16.1908L13.1561 7.89076C12.2991 7.40376 11.5381 7.46476 11.0781 7.95276L23.5411 20.4158L27.7641 16.1908Z" fill="url(#paint3_linear_8_30810)"/>
</g>
<defs>
<filter id="filter0_ii_8_30810" x="10.6152" y="7.55469" width="23.0898" height="25.7188" filterUnits="userSpaceOnUse" color-interpolation-filters="sRGB">
<feFlood flood-opacity="0" result="BackgroundImageFix"/>
<feBlend mode="normal" in="SourceGraphic" in2="BackgroundImageFix" result="shape"/>
<feColorMatrix in="SourceAlpha" type="matrix" values="0 0 0 0 0 0 0 0 0 0 0 0 0 0 0 0 0 0 127 0" result="hardAlpha"/>
<feOffset dy="-0.15"/>
<feComposite in2="hardAlpha" operator="arithmetic" k2="-1" k3="1"/>
<feColorMatrix type="matrix" values="0 0 0 0 0 0 0 0 0 0 0 0 0 0 0 0 0 0 0.12 0"/>
<feBlend mode="normal" in2="shape" result="effect1_innerShadow_8_30810"/>
<feColorMatrix in="SourceAlpha" type="matrix" values="0 0 0 0 0 0 0 0 0 0 0 0 0 0 0 0 0 0 127 0" result="hardAlpha"/>
<feOffset dy="0.15"/>
<feComposite in2="hardAlpha" operator="arithmetic" k2="-1" k3="1"/>
<feColorMatrix type="matrix" values="0 0 0 0 1 0 0 0 0 1 0 0 0 0 1 0 0 0 0.25 0"/>
<feBlend mode="normal" in2="effect1_innerShadow_8_30810" result="effect2_innerShadow_8_30810"/>
</filter>
<filter id="filter1_i_8_30810" x="11.0781" y="20.4141" width="16.6855" height="12.8594" filterUnits="userSpaceOnUse" color-interpolation-filters="sRGB">
<feFlood flood-opacity="0" result="BackgroundImageFix"/>
<feBlend mode="normal" in="SourceGraphic" in2="BackgroundImageFix" result="shape"/>
<feColorMatrix in="SourceAlpha" type="matrix" values="0 0 0 0 0 0 0 0 0 0 0 0 0 0 0 0 0 0 127 0" result="hardAlpha"/>
<feOffset dy="-0.15"/>
<feComposite in2="hardAlpha" operator="arithmetic" k2="-1" k3="1"/>
<feColorMatrix type="matrix" values="0 0 0 0 0 0 0 0 0 0 0 0 0 0 0 0 0 0 0.08 0"/>
<feBlend mode="normal" in2="shape" result="effect1_innerShadow_8_30810"/>
</filter>
<linearGradient id="paint0_linear_8_30810" x1="22.443" y1="9.12291" x2="5.66104" y2="25.9049" gradientUnits="userSpaceOnUse">
<stop stop-color="#00A0FF"/>
<stop offset="0.0066" stop-color="#00A1FF"/>
<stop offset="0.2601" stop-color="#00BEFF"/>
<stop offset="0.5122" stop-color="#00D2FF"/>
<stop offset="0.7604" stop-color="#00DFFF"/>
<stop offset="1" stop-color="#00E3FF"/>
</linearGradient>
<linearGradient id="paint1_linear_8_30810" x1="34.4755" y1="20.4166" x2="10.2796" y2="20.4166" gradientUnits="userSpaceOnUse">
<stop stop-color="#FFE000"/>
<stop offset="0.4087" stop-color="#FFBD00"/>
<stop offset="0.7754" stop-color="#FFA500"/>
<stop offset="1" stop-color="#FF9C00"/>
</linearGradient>
<linearGradient id="paint2_linear_8_30810" x1="25.4702" y1="22.708" x2="2.71173" y2="45.4665" gradientUnits="userSpaceOnUse">
<stop stop-color="#FF3A44"/>
<stop offset="1" stop-color="#C31162"/>
</linearGradient>
<linearGradient id="paint3_linear_8_30810" x1="7.93952" y1="0.590563" x2="18.1018" y2="10.7529" gradientUnits="userSpaceOnUse">
<stop stop-color="#32A071"/>
<stop offset="0.0685" stop-color="#2DA771"/>
<stop offset="0.4762" stop-color="#15CF74"/>
<stop offset="0.8009" stop-color="#06E775"/>
<stop offset="1" stop-color="#00F076"/>
</linearGradient>
</defs>
</svg>
